<?xml version="1.0" standalone="no"?>
<!DOCTYPE svg PUBLIC "-//W3C//DTD SVG 20010904//EN"
 "http://www.w3.org/TR/2001/REC-SVG-20010904/DTD/svg10.dtd">
<svg version="1.0" xmlns="http://www.w3.org/2000/svg"
 width="460.000000pt" height="627.000000pt" viewBox="0 0 460.000000 627.000000"
 preserveAspectRatio="xMidYMid meet">

<g transform="translate(0.000000,627.000000) scale(0.100000,-0.100000)"
fill="#000000" stroke="none">
<path d="M2293 5703 c-15 -38 -7 -85 16 -105 22 -17 25 -17 42 -2 37 33 13
124 -32 124 -11 0 -23 -8 -26 -17z"/>
<path d="M2002 5673 c-46 -67 -46 -69 -1 -110 23 -21 46 -38 51 -38 5 0 22 23
39 52 l30 51 -44 36 c-24 20 -47 36 -50 36 -3 0 -14 -12 -25 -27z"/>
<path d="M2542 5681 c-21 -13 -11 -55 14 -59 30 -4 48 21 34 47 -11 22 -27 26
-48 12z"/>
<path d="M1699 5603 c-13 -35 8 -96 36 -102 40 -7 60 64 29 107 -21 31 -52 28
-65 -5z"/>
<path d="M2629 5576 c-9 -9 -348 -78 -498 -102 -86 -13 -238 -33 -339 -44
-101 -11 -193 -25 -203 -31 -35 -18 -20 -29 34 -24 361 35 562 65 845 126 153
33 192 45 190 57 -3 15 -20 26 -29 18z"/>
<path d="M1493 5523 c-17 -6 -16 -38 1 -52 22 -18 48 -2 44 28 -3 25 -20 35
-45 24z"/>
<path d="M2935 5481 c-28 -27 -127 -55 -220 -61 -55 -4 -151 -20 -213 -34 -62
-15 -198 -41 -303 -59 l-192 -33 40 -26 c137 -91 270 -131 417 -126 l99 3 309
-428 c169 -235 308 -430 308 -433 0 -3 -15 -3 -32 0 -18 3 -146 8 -283 11
l-251 6 30 -176 c22 -131 27 -178 18 -187 -17 -17 -149 4 -215 35 -68 31 -130
86 -176 157 l-36 55 -3 -83 c-5 -136 35 -240 123 -321 75 -69 170 -106 326
-126 l46 -6 28 -97 c37 -126 39 -131 54 -103 10 18 6 42 -21 136 l-33 115 -43
0 c-65 0 -190 29 -244 56 -27 14 -67 43 -89 65 -46 46 -99 149 -99 192 l0 29
46 -41 c88 -77 208 -117 325 -109 39 3 71 7 73 9 2 2 -10 80 -26 173 -16 92
-27 171 -24 173 3 3 137 1 298 -4 161 -5 294 -8 296 -7 2 1 -147 210 -330 465
-184 255 -337 470 -342 477 -5 9 7 19 41 34 110 48 234 147 295 236 26 37 28
57 3 33z"/>
<path d="M1765 5269 c-88 -9 -183 -18 -212 -18 -51 -1 -52 -2 -63 -38 -18 -62
-24 -261 -11 -353 16 -110 42 -176 98 -252 88 -119 97 -150 101 -341 l4 -168
77 -39 78 -39 6 -107 c4 -59 7 -146 7 -194 0 -129 8 -177 32 -183 19 -5 20 -1
12 215 l-7 220 52 -26 51 -26 0 160 c0 146 -2 160 -17 160 -32 0 -117 47 -149
81 -42 45 -58 98 -51 167 12 111 66 138 156 78 29 -20 55 -36 57 -36 6 0 5
346 -3 563 l-6 197 -26 -1 c-14 -1 -98 -10 -186 -20z"/>
<path d="M2117 5025 c-53 -36 -97 -68 -97 -72 0 -18 57 -92 67 -88 7 2 53 32
103 65 l91 61 -17 28 c-9 15 -24 37 -33 49 l-16 22 -98 -65z"/>
<path d="M2386 5053 c-2 -10 -7 -36 -11 -58 l-6 -40 103 -18 c57 -10 111 -21
120 -23 13 -4 19 7 28 51 6 31 10 59 7 61 -4 5 -204 44 -224 44 -6 0 -14 -8
-17 -17z"/>
<path d="M2493 4835 c-47 -33 -38 -144 14 -184 57 -46 113 -9 113 75 0 93 -67
151 -127 109z"/>
<path d="M2282 4797 c-47 -50 -17 -178 44 -193 88 -22 127 114 54 188 -34 34
-69 36 -98 5z"/>
<path d="M4278 4113 c-9 -10 -26 -38 -38 -63 -29 -59 -27 -57 -51 -27 -26 34
-57 35 -65 3 -3 -14 -4 -33 -2 -43 4 -19 -58 -81 -69 -69 -4 4 -121 -107 -260
-246 l-252 -252 -137 -13 c-120 -11 -142 -16 -175 -39 -85 -59 -149 -149 -149
-210 0 -15 36 -20 307 -40 l221 -17 219 183 c120 101 273 229 340 284 71 59
121 108 120 117 -1 8 10 29 24 46 21 24 35 31 83 37 32 3 67 11 78 17 24 13
20 41 -10 54 -12 5 -22 12 -22 16 0 3 18 20 40 38 65 52 48 90 -32 72 -21 -5
-38 -6 -38 -2 0 4 9 24 20 46 40 78 13 99 -56 44 l-39 -31 -5 53 c-5 59 -24
74 -52 42z m19 -84 c-7 -80 9 -87 70 -28 49 48 49 47 13 -24 -29 -56 -20 -73
28 -56 17 6 39 9 49 7 14 -3 7 -12 -29 -38 -27 -19 -48 -39 -48 -46 0 -7 17
-18 38 -25 l37 -13 -30 -7 c-16 -4 -50 -7 -75 -8 -44 -1 -48 2 -117 72 -57 57
-73 80 -79 112 l-7 40 30 -27 c16 -16 35 -28 41 -28 7 0 27 29 44 65 18 36 34
65 37 65 2 0 1 -27 -2 -61z m-44 -290 c-8 -8 -31 8 -87 61 -62 59 -74 75 -64
87 10 12 24 2 87 -61 56 -56 72 -79 64 -87z"/>
<path d="M253 3774 c-3 -8 -3 -35 1 -60 l6 -45 -44 26 c-23 14 -50 25 -59 25
-25 0 -21 -41 8 -81 l26 -34 -47 -7 c-82 -12 -83 -39 -3 -83 l51 -27 -31 -19
c-57 -35 -32 -59 61 -59 54 0 76 -5 103 -22 21 -14 33 -29 30 -38 -3 -11 103
-79 378 -245 210 -126 388 -230 397 -229 28 2 205 42 263 60 17 5 18 4 3 -25
-61 -118 -148 -392 -186 -587 -68 -352 -120 -986 -120 -1474 0 -316 23 -673
47 -736 4 -12 55 -14 312 -14 l307 0 -1 123 c0 155 9 173 63 126 75 -66 148
-76 234 -31 l54 29 73 -54 c40 -29 77 -53 81 -53 4 0 11 16 14 35 7 38 44 125
53 125 3 0 21 -14 41 -31 73 -64 130 -73 210 -33 l53 26 67 -45 c107 -71 145
-86 259 -104 60 -9 111 -21 115 -27 13 -18 -27 -42 -137 -86 -142 -55 -169
-57 -290 -23 -85 25 -100 32 -97 48 3 15 1 17 -10 8 -20 -17 -180 -81 -242
-97 -53 -14 -60 -14 -167 15 -62 17 -126 37 -143 46 -23 12 -34 13 -48 4 -10
-6 -52 -11 -93 -11 -48 0 -74 -4 -70 -10 10 -17 153 -13 162 5 7 12 17 11 68
-10 33 -13 100 -34 149 -46 103 -26 132 -22 276 37 l87 35 104 -31 c130 -39
173 -39 279 -1 82 30 88 31 267 31 l183 0 0 58 c-4 719 -22 1683 -35 1813 -37
389 -103 745 -179 966 -37 108 -42 114 -49 53 -10 -83 -41 -118 -127 -141 -96
-25 -193 35 -224 141 -9 29 -16 88 -16 130 0 78 -19 140 -43 140 -7 0 -37 -10
-67 -22 -47 -19 -74 -22 -190 -22 -116 0 -143 3 -190 22 -70 28 -78 28 -92 -3
-8 -18 -19 -25 -40 -25 -15 0 -28 -4 -28 -9 0 -9 60 -291 81 -378 10 -42 10
-61 0 -95 -19 -61 -38 -86 -95 -119 -42 -24 -63 -29 -117 -29 -85 0 -142 28
-235 117 -93 89 -97 105 -92 344 l3 184 -80 -2 c-44 -1 -152 -7 -241 -14
l-160 -11 -283 206 c-156 113 -290 206 -298 206 -8 0 -27 9 -43 20 -15 11 -30
17 -34 13 -3 -3 -6 8 -6 25 0 16 -3 37 -6 46 -10 26 -44 18 -62 -14 -9 -16
-19 -30 -22 -30 -3 0 -18 20 -34 45 -26 43 -60 75 -79 75 -4 0 -10 -7 -14 -16z
m99 -115 l28 -34 30 35 30 34 0 -42 c0 -37 -8 -54 -61 -123 -34 -44 -67 -83
-74 -85 -7 -3 -39 -4 -71 -2 l-59 4 33 13 c17 7 32 19 32 27 0 8 -25 26 -55
41 -30 15 -55 31 -55 36 0 5 23 6 51 2 67 -9 78 6 40 54 -53 68 -44 70 38 9
38 -29 52 -9 35 49 -25 81 -22 80 58 -18z m162 -87 c5 -8 -109 -165 -124 -170
-28 -10 -14 29 37 98 54 74 75 91 87 72z m1964 -522 c30 -40 119 -90 160 -90
l34 0 -7 -52 c-21 -167 -94 -414 -198 -672 l-44 -109 -33 79 c-105 250 -193
544 -206 684 l-7 70 27 0 c38 0 97 32 142 79 51 53 99 57 132 11z m-500 -951
l47 -6 -42 -2 c-31 -1 -48 5 -65 22 -13 12 -16 15 -5 7 10 -8 39 -17 65 -21z
m762 1 c17 0 41 5 53 11 21 10 21 10 3 -5 -25 -20 -87 -20 -112 0 -18 15 -18
15 3 5 12 -6 36 -11 53 -11z m-310 -60 c0 -57 -3 -70 -16 -70 -13 0 -15 8 -9
43 18 119 25 127 25 27z"/>
<path d="M3057 3493 c-4 -3 -7 -11 -7 -17 0 -6 5 -5 12 2 6 6 9 14 7 17 -3 3
-9 2 -12 -2z"/>
<path d="M3240 3479 c0 -5 5 -7 10 -4 6 3 10 8 10 11 0 2 -4 4 -10 4 -5 0 -10
-5 -10 -11z"/>
<path d="M2901 3464 c0 -11 3 -14 6 -6 3 7 2 16 -1 19 -3 4 -6 -2 -5 -13z"/>
<path d="M1746 3427 c3 -10 9 -15 12 -12 3 3 0 11 -7 18 -10 9 -11 8 -5 -6z"/>
<path d="M2825 3371 c-3 -5 -1 -12 5 -16 5 -3 10 1 10 9 0 18 -6 21 -15 7z"/>
<path d="M1870 3360 c0 -5 5 -10 11 -10 5 0 7 5 4 10 -3 6 -8 10 -11 10 -2 0
-4 -4 -4 -10z"/>
<path d="M2985 3359 c-4 -6 -5 -12 -2 -15 2 -3 7 2 10 11 7 17 1 20 -8 4z"/>
<path d="M3115 3360 c-3 -5 -2 -10 4 -10 5 0 13 5 16 10 3 6 2 10 -4 10 -5 0
-13 -4 -16 -10z"/>
<path d="M1811 3234 c0 -11 3 -14 6 -6 3 7 2 16 -1 19 -3 4 -6 -2 -5 -13z"/>
<path d="M2745 3230 c-3 -5 -1 -10 4 -10 6 0 11 5 11 10 0 6 -2 10 -4 10 -3 0
-8 -4 -11 -10z"/>
<path d="M1961 3214 c0 -11 3 -14 6 -6 3 7 2 16 -1 19 -3 4 -6 -2 -5 -13z"/>
<path d="M2885 3200 c-3 -5 -1 -10 4 -10 6 0 11 5 11 10 0 6 -2 10 -4 10 -3 0
-8 -4 -11 -10z"/>
<path d="M1901 3064 c0 -11 3 -14 6 -6 3 7 2 16 -1 19 -3 4 -6 -2 -5 -13z"/>
<path d="M1776 3031 c-4 -7 -5 -15 -2 -18 9 -9 19 4 14 18 -4 11 -6 11 -12 0z"/>
<path d="M2021 2964 c0 -11 3 -14 6 -6 3 7 2 16 -1 19 -3 4 -6 -2 -5 -13z"/>
<path d="M2851 2944 c0 -11 3 -14 6 -6 3 7 2 16 -1 19 -3 4 -6 -2 -5 -13z"/>
<path d="M1680 2890 c0 -5 5 -10 10 -10 6 0 10 5 10 10 0 6 -4 10 -10 10 -5 0
-10 -4 -10 -10z"/>
<path d="M1870 2880 c0 -5 5 -10 11 -10 5 0 7 5 4 10 -3 6 -8 10 -11 10 -2 0
-4 -4 -4 -10z"/>
<path d="M1211 2784 c0 -11 3 -14 6 -6 3 7 2 16 -1 19 -3 4 -6 -2 -5 -13z"/>
<path d="M1981 2744 c0 -11 3 -14 6 -6 3 7 2 16 -1 19 -3 4 -6 -2 -5 -13z"/>
<path d="M1151 2694 c0 -11 3 -14 6 -6 3 7 2 16 -1 19 -3 4 -6 -2 -5 -13z"/>
<path d="M1171 2564 c0 -11 3 -14 6 -6 3 7 2 16 -1 19 -3 4 -6 -2 -5 -13z"/>
<path d="M1081 2434 c0 -11 3 -14 6 -6 3 7 2 16 -1 19 -3 4 -6 -2 -5 -13z"/>
<path d="M1191 2434 c0 -11 3 -14 6 -6 3 7 2 16 -1 19 -3 4 -6 -2 -5 -13z"/>
<path d="M1091 2304 c0 -11 3 -14 6 -6 3 7 2 16 -1 19 -3 4 -6 -2 -5 -13z"/>
<path d="M1135 2190 c-3 -5 -1 -10 4 -10 6 0 11 5 11 10 0 6 -2 10 -4 10 -3 0
-8 -4 -11 -10z"/>
<path d="M1051 2124 c0 -11 3 -14 6 -6 3 7 2 16 -1 19 -3 4 -6 -2 -5 -13z"/>
<path d="M1090 2010 c0 -5 5 -10 10 -10 6 0 10 5 10 10 0 6 -4 10 -10 10 -5 0
-10 -4 -10 -10z"/>
<path d="M1106 1825 c-3 -8 -1 -15 4 -15 6 0 10 7 10 15 0 8 -2 15 -4 15 -2 0
-6 -7 -10 -15z"/>
<path d="M1007 1693 c-4 -3 -7 -11 -7 -17 0 -6 5 -5 12 2 6 6 9 14 7 17 -3 3
-9 2 -12 -2z"/>
<path d="M1050 1520 c0 -5 5 -10 10 -10 6 0 10 5 10 10 0 6 -4 10 -10 10 -5 0
-10 -4 -10 -10z"/>
<path d="M956 1431 c-4 -7 -5 -15 -2 -18 9 -9 19 4 14 18 -4 11 -6 11 -12 0z"/>
<path d="M1041 1244 c0 -11 3 -14 6 -6 3 7 2 16 -1 19 -3 4 -6 -2 -5 -13z"/>
<path d="M941 1224 c0 -11 3 -14 6 -6 3 7 2 16 -1 19 -3 4 -6 -2 -5 -13z"/>
<path d="M1007 1083 c-4 -3 -7 -11 -7 -17 0 -6 5 -5 12 2 6 6 9 14 7 17 -3 3
-9 2 -12 -2z"/>
<path d="M930 1050 c0 -5 5 -10 10 -10 6 0 10 5 10 10 0 6 -4 10 -10 10 -5 0
-10 -4 -10 -10z"/>
<path d="M1021 964 c0 -11 3 -14 6 -6 3 7 2 16 -1 19 -3 4 -6 -2 -5 -13z"/>
<path d="M931 844 c0 -11 3 -14 6 -6 3 7 2 16 -1 19 -3 4 -6 -2 -5 -13z"/>
<path d="M1031 714 c0 -11 3 -14 6 -6 3 7 2 16 -1 19 -3 4 -6 -2 -5 -13z"/>
<path d="M910 644 c0 -8 5 -12 10 -9 6 3 10 10 10 16 0 5 -4 9 -10 9 -5 0 -10
-7 -10 -16z"/>
<path d="M1021 534 c0 -11 3 -14 6 -6 3 7 2 16 -1 19 -3 4 -6 -2 -5 -13z"/>
<path d="M946 395 c-3 -8 -1 -15 4 -15 6 0 10 7 10 15 0 8 -2 15 -4 15 -2 0
-6 -7 -10 -15z"/>
<path d="M1041 354 c0 -11 3 -14 6 -6 3 7 2 16 -1 19 -3 4 -6 -2 -5 -13z"/>
<path d="M971 234 c0 -11 3 -14 6 -6 3 7 2 16 -1 19 -3 4 -6 -2 -5 -13z"/>
<path d="M1066 165 c-3 -8 -1 -15 4 -15 6 0 10 7 10 15 0 8 -2 15 -4 15 -2 0
-6 -7 -10 -15z"/>
</g>
</svg>
