<?xml version="1.0" standalone="no"?>
<!DOCTYPE svg PUBLIC "-//W3C//DTD SVG 20010904//EN"
 "http://www.w3.org/TR/2001/REC-SVG-20010904/DTD/svg10.dtd">
<svg version="1.0" xmlns="http://www.w3.org/2000/svg"
 width="1024.000000pt" height="1024.000000pt" viewBox="0 0 1024.000000 1024.000000"
 preserveAspectRatio="xMidYMid meet">

<g transform="translate(0.000000,1024.000000) scale(0.100000,-0.100000)"
fill="#000000" stroke="none">
<path d="M7120 9805 c-642 -95 -1447 -449 -2113 -929 l-139 -101 -87 86 c-160
159 -427 312 -811 464 -498 197 -893 296 -1362 340 l-68 7 0 -52 c0 -28 20
-180 44 -338 51 -328 75 -517 111 -857 45 -428 53 -530 43 -540 -11 -12 -1074
-11 -1588 1 -195 5 -397 8 -448 6 -115 -4 -117 -7 -116 -142 4 -268 185 -770
437 -1210 127 -222 323 -501 477 -678 39 -45 70 -87 68 -92 -2 -5 -80 -69
-173 -142 -429 -335 -579 -471 -764 -693 -148 -178 -351 -472 -351 -508 0 -24
70 -78 145 -113 124 -57 224 -81 560 -134 244 -39 588 -135 770 -215 l50 -21
-65 -70 c-36 -38 -128 -134 -205 -214 -77 -80 -172 -188 -211 -241 -143 -190
-372 -537 -580 -881 -173 -286 -179 -302 -151 -371 19 -44 87 -103 135 -118
41 -12 322 -4 1248 37 205 10 379 14 389 11 13 -6 15 -15 10 -54 -21 -146 -99
-456 -211 -830 -30 -100 -54 -189 -54 -196 0 -62 503 -70 726 -12 228 60 456
179 611 319 33 31 64 56 68 56 4 0 44 -34 88 -76 95 -89 243 -190 341 -234
168 -75 390 -137 573 -160 l102 -13 5 -51 c3 -28 11 -122 17 -209 9 -118 16
-163 28 -177 29 -34 145 -42 586 -40 96 0 409 7 425 9 8 1 24 8 35 17 19 14
20 30 25 251 l5 237 65 13 c36 7 94 23 130 34 66 22 390 178 648 312 l143 75
62 -55 c95 -85 136 -110 295 -178 248 -106 570 -203 782 -236 103 -16 278 -6
360 20 79 25 166 76 194 114 21 28 21 37 22 650 l1 621 34 23 c19 13 176 107
350 210 399 234 473 287 634 448 235 235 389 495 476 805 29 103 29 105 11
130 -27 36 -89 53 -354 99 -404 70 -503 92 -650 147 -134 50 -234 137 -215
187 3 8 32 29 64 47 95 53 211 149 335 278 133 139 329 380 404 497 184 288
305 612 359 965 32 212 29 634 -5 675 -19 23 -79 29 -145 16 -33 -7 -150 -48
-260 -91 -200 -78 -395 -144 -512 -174 -34 -9 -69 -19 -78 -22 -29 -11 -15 27
91 259 319 693 399 918 449 1262 30 202 20 467 -19 521 -13 17 -16 17 -77 -5
-35 -13 -163 -66 -284 -119 -585 -253 -824 -343 -1076 -407 -264 -66 -599
-111 -764 -103 l-70 3 3 60 c6 129 43 346 226 1317 36 191 67 373 68 405 l3
58 -35 12 c-44 15 -180 14 -290 -2z m30 -292 c0 -9 -65 -343 -146 -742 -177
-883 -192 -982 -164 -1057 l11 -27 237 6 c639 17 1096 123 1862 431 276 112
310 123 310 104 0 -24 -171 -521 -236 -684 -130 -331 -291 -675 -416 -892 -98
-168 -172 -367 -160 -424 2 -12 13 -18 33 -18 45 0 301 69 714 193 209 63 392
117 408 121 l27 6 0 -82 c0 -342 -119 -763 -301 -1066 -156 -259 -593 -739
-892 -979 -56 -45 -56 -48 3 -168 59 -120 148 -218 254 -280 58 -34 177 -65
541 -144 330 -71 375 -83 375 -101 0 -21 -110 -228 -167 -315 -160 -243 -385
-461 -625 -607 -40 -25 -190 -106 -333 -180 -290 -150 -343 -182 -355 -214 -5
-12 -6 -250 -4 -530 3 -280 2 -538 -3 -574 l-8 -65 -78 2 c-156 5 -558 81
-734 139 -93 31 -247 104 -287 136 l-28 24 98 131 c175 233 340 531 408 734
19 59 45 159 58 223 l23 116 50 0 c61 0 224 24 308 45 226 58 392 212 432 402
45 211 -7 419 -133 534 -92 84 -203 127 -387 149 -49 6 -90 12 -91 13 -1 1 3
47 9 102 18 171 14 912 -6 1105 -57 539 -150 908 -312 1225 -66 129 -273 443
-391 590 -395 495 -828 753 -1419 847 -124 20 -177 22 -465 22 -284 0 -343 -3
-465 -22 -496 -77 -846 -238 -1143 -526 -325 -314 -549 -755 -697 -1370 -152
-632 -219 -1132 -220 -1643 l0 -292 -40 -7 c-59 -10 -184 -57 -235 -89 -116
-73 -200 -186 -252 -338 -29 -84 -32 -106 -36 -249 -5 -183 8 -262 64 -378 65
-135 197 -235 369 -276 48 -12 114 -17 207 -17 l137 0 6 -66 c17 -185 51 -313
117 -445 37 -73 164 -269 286 -442 l51 -71 -157 -58 c-243 -90 -531 -185 -579
-192 -37 -5 -43 -3 -43 12 0 10 27 123 60 250 73 282 110 452 110 502 0 59
-73 163 -156 223 l-43 30 -288 -11 c-408 -17 -1230 -18 -1265 -2 l-28 12 19
49 c27 68 105 199 234 392 198 296 389 549 707 935 196 238 240 298 240 328 0
30 -65 111 -133 165 -135 107 -318 191 -507 232 -112 25 -351 56 -575 75 -99
9 -195 18 -213 21 l-33 5 20 27 c97 135 385 447 561 607 187 171 242 216 369
300 99 65 242 194 289 261 l21 31 -80 94 c-504 590 -848 1226 -908 1682 -16
116 -13 123 52 131 28 3 491 6 1027 6 536 0 999 3 1028 6 47 6 52 9 52 31 0
14 -31 224 -70 467 -90 574 -125 804 -150 1005 -18 153 -26 291 -16 291 3 0
106 -33 229 -74 365 -120 662 -244 1027 -426 185 -92 322 -180 520 -335 163
-127 192 -138 265 -102 27 14 151 95 275 182 352 246 589 387 838 499 229 104
681 261 902 314 124 30 121 30 178 31 43 1 52 -2 52 -16z m-1729 -2043 c450
-45 763 -169 1066 -424 236 -198 445 -483 637 -866 343 -689 440 -1306 336
-2150 -77 -621 -224 -1248 -392 -1670 -116 -292 -223 -462 -395 -633 l-79 -78
-65 49 c-76 58 -178 124 -270 175 l-67 37 -32 -30 c-17 -16 -30 -37 -28 -47 2
-9 70 -71 152 -138 83 -66 151 -125 153 -131 4 -14 -70 -70 -141 -108 -57 -30
-40 -37 -178 75 -51 42 -135 106 -186 143 -82 59 -95 65 -115 55 -35 -18 -67
-51 -67 -68 1 -9 61 -60 134 -115 157 -116 209 -162 203 -179 -5 -17 -189 -98
-238 -104 -39 -6 -40 -6 -182 134 -78 77 -154 147 -169 157 -25 16 -29 16 -58
1 -37 -19 -46 -39 -32 -68 5 -12 56 -78 112 -146 56 -67 100 -125 98 -127 -26
-25 -680 -43 -929 -25 -212 16 -366 36 -454 60 -401 110 -763 510 -997 1100
-157 396 -224 792 -248 1467 -25 704 36 1417 166 1922 132 516 301 897 514
1157 132 161 330 324 489 404 155 78 361 140 548 166 120 16 569 19 714 5z
m-2756 -3986 c37 -178 83 -525 85 -633 0 -18 -74 -7 -159 25 -95 36 -163 92
-196 159 -25 51 -27 63 -22 133 8 102 39 189 101 281 45 66 151 169 162 158 3
-2 15 -58 29 -123z m5266 99 c112 -50 155 -123 147 -250 -4 -63 -11 -91 -38
-143 -61 -120 -192 -224 -333 -265 -90 -26 -91 -25 -53 117 18 68 46 164 61
213 22 74 27 111 29 210 1 66 5 126 10 134 12 19 119 9 177 -16z m-2455 -2686
c4 -3 9 -71 12 -151 5 -143 5 -144 -19 -157 -15 -9 -58 -13 -119 -13 -78 0
-109 5 -172 27 -96 34 -178 36 -249 6 -27 -12 -52 -20 -55 -17 -20 21 -47 292
-30 309 7 7 625 4 632 -4z"/>
<path d="M6410 9120 c-19 -11 -58 -28 -87 -39 -113 -44 -344 -185 -488 -299
-38 -31 -72 -57 -74 -58 -12 -10 75 -114 95 -114 7 0 46 30 86 66 81 73 256
165 468 248 106 41 115 47 118 73 3 34 -47 137 -68 140 -8 1 -31 -6 -50 -17z"/>
<path d="M3155 9013 c3 -16 18 -113 35 -216 39 -246 90 -477 104 -477 16 0 54
27 98 68 26 25 36 42 33 56 -16 82 -47 297 -43 302 7 6 153 -19 261 -45 l78
-19 10 25 c5 13 9 46 9 72 l0 48 -143 62 c-138 59 -401 151 -432 151 -10 0
-13 -8 -10 -27z"/>
<path d="M4845 6773 c-119 -6 -382 -35 -490 -54 -317 -55 -676 -177 -749 -255
-37 -40 -56 -112 -56 -210 0 -149 38 -264 86 -264 14 0 94 22 177 50 460 150
940 209 1602 197 549 -10 912 -61 1221 -171 54 -20 104 -36 110 -36 30 0 54
125 55 279 0 135 -2 139 -120 200 -249 129 -704 228 -1196 261 -137 9 -493 11
-640 3z m425 -153 c525 -29 986 -96 1234 -180 136 -45 143 -52 156 -132 7 -38
9 -72 6 -76 -4 -3 -64 8 -134 26 -406 103 -728 143 -1152 143 -473 0 -948 -53
-1434 -161 -214 -48 -209 -50 -214 65 -5 96 6 114 100 159 135 64 353 114 615
141 258 26 530 31 823 15z"/>
<path d="M4005 5839 c-357 -52 -589 -302 -635 -682 -20 -170 9 -335 89 -502
84 -175 178 -276 327 -350 120 -59 209 -78 369 -79 170 0 236 14 384 86 88 42
115 61 185 131 44 45 96 108 115 139 118 202 143 514 61 759 -38 115 -86 195
-164 277 -167 175 -452 261 -731 221z m321 -155 c193 -40 357 -175 429 -352
57 -140 71 -376 30 -512 -83 -273 -319 -441 -625 -442 -260 -1 -462 117 -567
332 -64 130 -78 192 -77 350 0 119 4 145 27 215 85 256 267 402 527 424 95 8
166 4 256 -15z"/>
<path d="M4080 5138 c-61 -32 -93 -93 -87 -166 4 -56 24 -91 71 -126 21 -16
42 -21 91 -21 71 0 103 17 143 76 20 29 23 44 20 94 -5 74 -33 119 -92 146
-54 25 -93 24 -146 -3z"/>
<path d="M5865 5824 c-235 -37 -416 -135 -530 -286 -64 -84 -130 -224 -156
-334 -26 -104 -31 -311 -10 -409 47 -227 171 -445 312 -551 277 -209 704 -225
1012 -37 115 69 227 193 291 320 99 197 115 526 37 759 -43 127 -94 209 -190
304 -156 155 -344 229 -601 235 -74 2 -148 1 -165 -1z m351 -174 c165 -43 328
-161 403 -292 73 -129 108 -299 98 -468 -21 -328 -208 -555 -522 -635 -100
-26 -275 -24 -378 4 -251 67 -425 258 -492 542 -22 94 -20 277 5 373 40 158
144 310 268 392 68 45 193 90 288 103 92 13 239 4 330 -19z"/>
<path d="M5975 5076 c-43 -18 -93 -79 -101 -121 -19 -103 41 -191 139 -202 88
-10 164 41 187 127 34 128 -104 249 -225 196z"/>
<path d="M3460 4158 c-17 -24 -29 -52 -28 -63 7 -44 201 -170 323 -208 139
-45 388 -62 525 -38 36 7 102 23 148 38 l82 25 0 47 c0 26 -6 55 -13 65 -13
18 -18 18 -128 -5 -163 -33 -388 -34 -509 -1 -100 27 -224 86 -298 142 -29 22
-56 40 -61 40 -5 0 -23 -19 -41 -42z"/>
<path d="M6750 4085 c-130 -93 -314 -175 -448 -201 -97 -19 -245 -18 -340 2
-42 9 -81 16 -86 17 -13 3 -38 -84 -31 -109 9 -41 241 -91 365 -79 146 14 349
75 459 137 66 37 186 126 220 162 l24 26 -29 47 c-17 26 -36 49 -44 50 -8 1
-49 -23 -90 -52z"/>
<path d="M5346 3888 c-3 -13 -7 -160 -10 -328 -5 -320 -15 -411 -56 -536 -14
-42 -35 -79 -59 -105 -33 -34 -43 -39 -83 -39 -37 0 -52 6 -77 29 -97 91 -151
348 -167 804 l-7 187 -41 0 c-23 0 -52 -7 -64 -16 -22 -15 -22 -20 -22 -224 0
-114 5 -254 10 -311 40 -405 162 -626 355 -646 182 -19 302 142 351 469 19
127 25 450 11 631 l-9 107 -64 0 c-58 0 -64 -2 -68 -22z"/>
<path d="M6306 2857 c-25 -24 -46 -48 -46 -53 0 -5 24 -19 53 -32 82 -35 165
-106 189 -160 18 -39 20 -58 14 -126 -4 -45 -9 -99 -12 -120 l-7 -39 64 7 c41
5 69 13 77 23 31 42 1 236 -53 343 -34 67 -108 141 -173 174 -28 14 -53 26
-55 26 -2 0 -25 -19 -51 -43z"/>
<path d="M3715 2791 c-37 -22 -108 -99 -128 -137 -20 -39 -36 -118 -43 -218
l-7 -82 34 -16 c57 -26 86 -30 93 -12 3 9 6 55 6 104 0 135 4 146 82 221 37
36 68 73 68 82 0 19 -48 77 -63 77 -7 0 -25 -8 -42 -19z"/>
<path d="M6130 2473 c-465 -152 -1026 -233 -1432 -205 -285 19 -485 62 -692
149 -103 43 -110 45 -122 28 -18 -24 -29 -105 -17 -124 24 -38 229 -113 408
-150 449 -91 956 -95 1375 -11 236 47 497 134 594 197 37 24 38 25 31 71 -7
49 -21 83 -33 81 -4 -1 -54 -17 -112 -36z"/>
</g>
</svg>
