<?xml version="1.0" standalone="no"?>
<!DOCTYPE svg PUBLIC "-//W3C//DTD SVG 20010904//EN"
 "http://www.w3.org/TR/2001/REC-SVG-20010904/DTD/svg10.dtd">
<svg version="1.0" xmlns="http://www.w3.org/2000/svg"
 width="151.000000pt" height="151.000000pt" viewBox="0 0 151.000000 151.000000"
 preserveAspectRatio="xMidYMid meet">

<g transform="translate(0.000000,151.000000) scale(0.100000,-0.100000)"
fill="#000000" stroke="none">
<path d="M194 1499 c-62 -18 -128 -71 -159 -129 l-30 -55 -3 -658 -3 -658 658
3 658 3 45 24 c61 32 87 57 118 116 l27 50 0 560 0 560 -30 55 c-33 60 -98
112 -163 130 -46 13 -1074 12 -1118 -1z m590 -398 c109 -53 139 -196 60 -290
l-24 -29 39 -39 c76 -76 80 -188 8 -270 -57 -65 -99 -77 -289 -81 l-168 -4 0
344 c0 260 3 348 13 360 27 34 50 39 183 35 111 -3 137 -7 178 -26z m329 -553
c78 -41 52 -159 -35 -158 -37 1 -59 14 -76 47 -19 35 -14 63 17 94 31 31 59
36 94 17z"/>
<path d="M562 988 c-7 -7 -12 -42 -12 -85 l0 -73 70 0 c62 0 74 3 95 25 32 31
34 96 5 125 -16 16 -33 20 -83 20 -36 0 -68 -5 -75 -12z"/>
<path d="M562 698 c-7 -7 -12 -44 -12 -95 l0 -83 81 0 c76 0 82 2 110 29 20
20 29 40 29 61 0 37 -23 85 -45 94 -29 11 -150 7 -163 -6z"/>
</g>
</svg>
